<svg width="513" height="513" viewBox="0 0 513 513" fill="none" xmlns="http://www.w3.org/2000/svg">
<rect x="40.9998" y="45" width="400" height="400" rx="5" fill="white"/>
<path d="M150.966 282.504C155.493 284.152 159.747 285.216 163.73 285.695C167.796 286.136 171.52 285.898 174.902 284.981C182.1 283.097 187.091 278.332 189.874 270.685C192.234 264.2 192.061 258.109 189.354 252.413C186.446 246.505 180.767 239.553 172.314 231.558C163.946 223.523 157.754 216.836 153.74 211.495C149.809 206.115 146.99 201.105 145.284 196.466C142.11 188.244 142.138 179.698 145.367 170.827C149.108 160.549 156.627 153.69 167.925 150.251C178.477 146.955 189.627 147.445 201.373 151.721C210.611 155.083 219.236 160.128 227.249 166.855C230.547 169.787 233.422 172.739 235.874 175.709L223.744 199.042L216.036 196.237C219.108 187.794 219.041 180.841 215.833 175.378C212.648 169.854 206.711 165.511 198.024 162.349C186.033 157.985 176.41 158.916 169.155 165.144C166.813 167.201 165.063 169.82 163.905 173.002C162.747 176.183 162.159 179.225 162.142 182.129C162.147 184.971 163.019 188.095 164.759 191.499C168.094 198.325 175.779 207.288 187.812 218.388C204.561 234.045 212.494 248.226 211.611 260.93C211.276 264.895 210.363 268.928 208.871 273.027C207.401 277.064 205.295 280.662 202.552 283.821C199.892 286.941 196.846 289.504 193.414 291.511C190.004 293.457 186.329 294.891 182.391 295.813C178.514 296.757 174.556 297.257 170.518 297.311C152.569 297.706 136.229 291.205 121.498 277.807C116.154 272.882 111.756 267.644 108.304 262.092L121.744 237.158L129.544 239.997C125.068 252.294 125.836 262.273 131.846 269.933C135.966 275.174 142.339 279.365 150.966 282.504ZM329.977 348.802L343.409 351.301L341.902 310.326L286.842 290.286L259.442 320.739L271.613 327.559L268.774 335.36L229.406 321.031L232.245 313.231L247.512 316.397L339.044 214.819L338.496 204.331L355.633 203.502L361.578 357.914L375.585 365.402L372.746 373.202L327.138 356.602L329.977 348.802ZM295.197 280.752L341.906 297.753L339.948 230.321L295.197 280.752Z" fill="black"/>
</svg>
